<?xml version="1.0" standalone="no"?>
<!DOCTYPE svg PUBLIC "-//W3C//DTD SVG 20010904//EN"
 "http://www.w3.org/TR/2001/REC-SVG-20010904/DTD/svg10.dtd">
<svg version="1.0" xmlns="http://www.w3.org/2000/svg"
 width="512.000000pt" height="512.000000pt" viewBox="0 0 512.000000 512.000000"
 preserveAspectRatio="xMidYMid meet">

<g transform="translate(0.000000,512.000000) scale(0.100000,-0.100000)"
fill="#000000" stroke="none">
<path d="M2965 4209 c-55 -22 -107 -47 -117 -56 -25 -22 -30 -60 -14 -92 25
-48 64 -53 145 -19 31 12 56 17 61 12 10 -11 1078 -2096 1082 -2114 2 -8 -109
-63 -307 -151 -170 -76 -315 -139 -321 -139 -9 0 -1099 2124 -1099 2143 0 4
52 30 115 56 63 26 125 53 136 59 53 28 44 124 -12 138 -36 9 -58 2 -299 -93
-110 -44 -303 -117 -430 -163 -126 -46 -240 -92 -252 -103 -14 -13 -23 -32
-23 -50 0 -19 52 -132 141 -305 77 -151 139 -275 137 -276 -2 -2 -111 -42
-243 -91 -269 -98 -290 -108 -299 -130 -22 -58 10 -115 65 -115 17 0 148 43
290 95 142 52 260 95 262 95 6 0 212 -408 207 -412 -10 -10 -470 -198 -482
-198 -12 0 -648 257 -656 265 -2 2 23 13 55 25 77 28 93 45 93 91 0 29 -6 42
-26 58 -15 12 -36 21 -48 21 -20 0 -297 -98 -343 -121 -22 -12 -463 -832 -463
-862 0 -30 22 -65 49 -77 86 -40 1307 -561 1326 -566 17 -4 156 53 500 206
263 116 480 208 484 205 3 -3 80 -151 171 -328 191 -372 185 -365 279 -326 31
12 312 140 625 283 426 195 574 268 589 288 20 26 20 26 -3 240 l-22 213 -75
148 c-41 82 -73 150 -71 151 1 1 134 60 293 130 286 126 335 155 335 196 0 24
-12 52 -207 473 -134 289 -171 361 -192 372 -25 13 -813 316 -969 373 l-73 27
-109 216 c-60 119 -115 221 -122 227 -31 25 -64 21 -163 -19z m-165 -1569
c304 -597 553 -1089 553 -1095 0 -19 -266 -426 -274 -418 -11 12 -1258 2457
-1255 2461 11 10 412 149 417 144 3 -4 255 -495 559 -1092z m1023 798 c174
-67 314 -125 310 -129 -10 -9 -418 -179 -430 -179 -4 0 -59 100 -120 221 -76
148 -107 219 -95 215 9 -4 160 -61 335 -128z m646 -538 c79 -171 142 -312 140
-314 -18 -18 -512 -227 -518 -220 -13 13 -311 599 -311 610 0 7 519 231 540
233 3 1 70 -139 149 -309z m-3034 -667 l190 -78 3 -409 c2 -386 1 -408 -15
-404 -10 3 -262 110 -561 238 l-542 232 39 72 c21 39 82 154 136 256 54 102
115 217 137 257 l39 72 192 -79 c106 -43 278 -114 382 -157z m1002 -203 c89
-173 162 -320 162 -325 1 -8 -693 -324 -791 -361 -17 -6 -18 18 -18 403 l0
409 228 96 c125 53 234 95 242 94 9 -1 81 -131 177 -316z m1738 -282 c3 -13 6
-63 8 -111 l2 -88 -431 -198 c-237 -109 -438 -200 -447 -204 -17 -6 -10 6 128
218 l72 111 223 99 c123 55 269 121 324 147 56 25 104 47 108 47 4 1 10 -9 13
-21z"/>
</g>
</svg>
